<?xml version="1.0" encoding="UTF-8" standalone="no"?>
<!-- Created with Inkscape (http://www.inkscape.org/) -->

<svg
   width="349.9841mm"
   height="95.216614mm"
   viewBox="0 0 249.98864 68.011866"
   version="1.1"
   id="svg432"
   xml:space="preserve"
   inkscape:version="1.2.2 (732a01da63, 2022-12-09)"
   sodipodi:docname="grafana_icon.svg"
   xmlns:inkscape="http://www.inkscape.org/namespaces/inkscape"
   xmlns:sodipodi="http://sodipodi.sourceforge.net/DTD/sodipodi-0.dtd"
   xmlns="http://www.w3.org/2000/svg"
   xmlns:svg="http://www.w3.org/2000/svg"><sodipodi:namedview
     id="namedview434"
     pagecolor="#ffffff"
     bordercolor="#000000"
     borderopacity="0.25"
     inkscape:showpageshadow="2"
     inkscape:pageopacity="0.0"
     inkscape:pagecheckerboard="0"
     inkscape:deskcolor="#d1d1d1"
     inkscape:document-units="mm"
     showgrid="false"
     inkscape:zoom="0.46769781"
     inkscape:cx="498.18493"
     inkscape:cy="126.14983"
     inkscape:window-width="1366"
     inkscape:window-height="705"
     inkscape:window-x="-8"
     inkscape:window-y="-8"
     inkscape:window-maximized="1"
     inkscape:current-layer="layer1" /><defs
     id="defs429" /><g
     inkscape:label="Camada 1"
     id="layer1"
     transform="scale(1.3157297)"><path
       id="path1171"
       style="fill:#00a000;fill-opacity:1;stroke-width:0.262371"
       d="M 50.859945,0 36.168335,0.00465088 C 19.991356,0.00964534 19.25103,0.06792777 16.12408,1.5900838 13.956397,2.6452826 11.371216,5.0581331 10.326501,7.001123 9.4584366,8.6155744 8.69611,11.108486 8.69611,12.332581 v 0.728637 l 14.42806,-0.0093 c 16.011613,-0.01011 17.18491,-0.102084 20.274215,-1.590084 2.184272,-1.052081 4.97713,-3.6904312 5.976896,-5.6461673 0.694482,-1.3585395 1.47313,-4.1082851 1.48053,-5.22810466 z m -14.493689,19.291329 -9.816455,0.09198 c -9.445196,0.08845 -9.880857,0.114606 -11.529012,0.692464 C 9.7652461,21.918417 5.0873004,26.752782 3.6287191,31.848702 3.1881651,33.387887 2.1989769e-4,50.57237 0,51.409265 c -7.263378e-5,0.27643 2.8732597,0.324022 15.349967,0.252181 16.969249,-0.09771 16.350972,-0.03999 19.82308,-1.857768 3.592301,-1.8807 6.368143,-5.816996 6.662126,-9.447485 l 0.136942,-1.694987 H 29.023551 c -9.724096,0 -12.948563,-0.076 -12.948563,-0.305924 0,-0.289241 0.67018,-4.153555 0.925525,-5.336109 0.112153,-0.519405 0.330172,-0.556457 4.142383,-0.700215 5.939402,-0.223979 8.826183,-1.334034 11.841137,-4.553211 1.880542,-2.007927 3.382223,-5.438129 3.382223,-7.726143 z" /><path
       style="fill:#00a000;fill-opacity:1;stroke-width:0.262371"
       d="m 166.28294,31.109969 c 0,-0.577437 1.24386,-9.27222 1.45157,-10.146704 l 0.13961,-0.587755 h -5.67076 -5.67077 l 0.006,-0.848979 c 0.003,-0.466939 0.23778,-2.377143 0.52099,-4.244898 0.28322,-1.867755 0.51766,-3.484082 0.52099,-3.591837 0.003,-0.107755 2.59541,-0.195918 5.76017,-0.195918 h 5.75411 l 0.58202,-4.1142862 c 0.3201,-2.2628571 0.70756,-4.8489796 0.86101,-5.7469387 L 170.81693,0 h 4.71636 4.71636 v 0.62880546 c 0,0.67149574 -1.2176,9.29227344 -1.45157,10.27731654 l -0.1396,0.587756 H 184.32924 190 l -0.006,0.848979 c -0.003,0.466939 -0.23778,2.377143 -0.52099,4.244898 -0.28321,1.867755 -0.51766,3.484082 -0.52099,3.591837 -0.003,0.107755 -2.59318,0.195918 -5.75522,0.195918 h -5.74918 l -0.72832,5.028572 c -0.40058,2.765714 -0.79094,5.293061 -0.86747,5.616326 -0.1379,0.582484 -0.18143,0.587755 -4.85399,0.587755 -4.46264,0 -4.71484,-0.02665 -4.71484,-0.498194 z"
       id="path1169" /><path
       style="fill:#00a000;fill-opacity:1;stroke-width:0.262371"
       d="m 116.16457,51.197424 c -4.53362,-0.713103 -9.25429,-2.783425 -12.79772,-5.612635 -1.19573,-0.954721 -2.17406,-1.815743 -2.17406,-1.913383 0,-0.09764 2.22347,-0.184608 4.94105,-0.193259 5.3833,-0.01714 7.7022,-0.321941 12.94552,-1.701588 7.94218,-2.08978 16.89394,-6.68753 20.53715,-10.548167 1.6452,-1.743388 4.10203,-5.094123 3.44566,-4.699339 -0.20049,0.120586 -1.13885,0.7139 -2.08524,1.318478 -9.00028,5.749577 -23.01161,9.763576 -34.20242,9.798384 -7.863048,0.02445 -12.686091,-1.196956 -15.738015,-3.985588 -1.672274,-1.528004 -2.347275,-3.070184 -2.327413,-5.31747 0.02098,-2.373039 0.808448,-4.397125 2.388458,-6.139147 1.14444,-1.261791 3.125982,-2.554368 3.439482,-2.243603 0.07962,0.07892 -0.355969,0.681975 -0.967962,1.340121 -1.336883,1.437695 -1.863431,2.59577 -1.86211,4.095463 0.0013,1.419379 0.690872,2.548775 2.153179,3.526272 2.946863,1.969865 6.601831,2.768112 12.603121,2.752528 10.01518,-0.02602 21.88547,-3.316582 30.42376,-8.433792 2.6606,-1.594563 4.98273,-3.345079 3.96597,-2.989709 -0.28987,0.101315 -1.97943,0.697682 -3.75457,1.325261 -4.27947,1.512956 -10.17947,3.081509 -14.56027,3.870941 -13.45967,2.425472 -23.12279,0.78401 -25.907044,-4.400801 -0.866324,-1.613263 -0.808248,-4.932521 0.124994,-7.143708 1.181605,-2.799653 2.376476,-4.5396421 4.70151,-6.8464069 3.14795,-3.1232225 6.24446,-4.829332 11.46763,-6.31841407 1.80008,-0.51318795 2.709,-0.59943634 6.31888,-0.59960909 3.5802,-1.7133e-4 4.55432,0.0906933 6.45631,0.60223678 2.68078,0.72100358 5.89897,2.17661038 8.20052,3.70914218 3.82683,2.5481722 7.68924,7.3089731 9.36525,11.5435721 l 0.71003,1.793972 0.60863,-0.730323 c 0.33475,-0.401677 0.9661,-1.425016 1.40301,-2.274087 1.82575,-3.548072 0.48862,-6.1270191 -3.81726,-7.3623853 l -1.58114,-0.4536314 0.91513,-0.240611 c 2.01495,-0.5297803 5.72203,0.767419 7.64743,2.6760262 1.71428,1.6993295 2.23204,2.9403295 2.23732,5.3625115 0.004,1.858805 -0.0963,2.298336 -0.88889,3.894315 -0.57691,1.161647 -1.58057,2.511954 -2.83287,3.81129 -1.93483,2.007495 -1.93942,2.015711 -1.93942,3.466375 0,11.400145 -8.15149,21.764566 -19.36894,24.62715 -2.93625,0.749304 -7.61173,1.039893 -10.19465,0.633618 z"
       id="path1167" /><path
       style="fill:#00a000;fill-opacity:1;stroke-width:0.262371"
       d="M 63.9043,51.450593 C 55.129897,50.09705 48.580304,44.389287 46.344486,36.147764 c -0.670207,-2.47047 -0.81458,-8.168748 -0.270553,-10.678376 1.383171,-6.380639 4.132653,-11.305694 8.974551,-16.0758037 2.954695,-2.9108906 5.232616,-4.55872 8.627955,-6.2413939 7.585601,-3.75929928 16.448129,-4.11703152 23.154352,-0.9346159 2.10676,0.9997564 4.878912,3.0001919 6.156621,4.4427297 0.716738,0.8091995 0.808718,1.040477 0.519446,1.306119 -1.317743,1.2100945 -11.719811,9.8773618 -11.967401,9.9715418 -0.169417,0.06445 -0.708368,-0.245785 -1.19767,-0.689398 -2.050909,-1.859409 -5.105903,-2.652536 -8.14404,-2.114326 -5.498677,0.974097 -10.092811,5.497257 -11.114405,10.942698 -0.770609,4.10759 1.351846,8.165558 5.161718,9.868802 1.321994,0.59101 1.991445,0.721659 3.720266,0.726045 2.98392,0.0076 5.33642,-0.806199 8.169209,-2.825856 0.498546,-0.355441 0.75862,-0.09469 4.809293,4.821867 2.355236,2.858694 4.279293,5.290357 4.275683,5.40369 -0.01304,0.409918 -3.35569,2.694081 -5.838872,3.989945 -4.544781,2.371728 -8.218596,3.370713 -12.99645,3.533999 -1.594314,0.05449 -3.610264,-0.01068 -4.479889,-0.144838 z"
       id="path1165" /></g></svg>
